# xmcd
#
# Track frame offsets:
#	150
#	18463
#	34288
#	47056
#	61892
#	79934
#	98123
#	112704
#	128076
#	143775
#
# Disc length: 2171 seconds
#
# Revision: 0
# Processed by: cddbd v1.5.2PL0 Copyright (c) Steve Scherf et al.
# Submitted via: audiograbber 1.83.01
#
DISCID=7d08790a
DTITLE=The Del McCoury Band - Celebrating 50 Years Of - CD5
DYEAR=2009
DGENRE=Bluegrass
TTITLE0=Vincent Black Lightning
TTITLE1=Let An Old Racehorse Run
TTITLE2=Same Kind of Crazy As Me
TTITLE3=I'm Afraid I Forgot the Feeling
TTITLE4=All Aboard
TTITLE5=It's Just the Night
TTITLE6=Nothin' Special
TTITLE7=Unequal Love
TTITLE8=Mill Towns
TTITLE9=My Love Will Not Change
EXTD=
EXTT0=
EXTT1=
EXTT2=
EXTT3=
EXTT4=
EXTT5=
EXTT6=
EXTT7=
EXTT8=
EXTT9=
PLAYORDER=
